<mxfile host="app.diagrams.net" agent="Mozilla/5.0 (Windows NT 10.0; Win64; x64; rv:133.0) Gecko/20100101 Firefox/133.0" version="26.0.2">
  <diagram name="Strona-1" id="B-6_xe6kxIKM6-50cdTz">
    <mxGraphModel dx="1728" dy="960" grid="1" gridSize="10" guides="1" tooltips="1" connect="1" arrows="1" fold="1" page="1" pageScale="1" pageWidth="827" pageHeight="1169" math="0" shadow="0">
      <root>
        <mxCell id="0" />
        <mxCell id="1" parent="0" />
        <mxCell id="lYLtupi1fAIk3EvGBnep-51" value="" style="edgeStyle=orthogonalEdgeStyle;rounded=0;orthogonalLoop=1;jettySize=auto;html=1;" edge="1" parent="1" source="lYLtupi1fAIk3EvGBnep-1" target="lYLtupi1fAIk3EvGBnep-4">
          <mxGeometry relative="1" as="geometry" />
        </mxCell>
        <mxCell id="lYLtupi1fAIk3EvGBnep-1" value="" style="sketch=0;outlineConnect=0;fontColor=#232F3E;gradientColor=none;fillColor=#3399FF;strokeColor=none;dashed=0;verticalLabelPosition=bottom;verticalAlign=top;align=center;html=1;fontSize=12;fontStyle=0;aspect=fixed;pointerEvents=1;shape=mxgraph.aws4.user;" vertex="1" parent="1">
          <mxGeometry x="170" y="190" width="78" height="78" as="geometry" />
        </mxCell>
        <mxCell id="lYLtupi1fAIk3EvGBnep-2" value="&lt;font style=&quot;font-size: 9px;&quot;&gt;użytkownik zleca wykonanie raportu&lt;/font&gt;" style="text;html=1;align=center;verticalAlign=middle;whiteSpace=wrap;rounded=0;" vertex="1" parent="1">
          <mxGeometry x="164" y="256" width="90" height="62" as="geometry" />
        </mxCell>
        <mxCell id="lYLtupi1fAIk3EvGBnep-3" value="&lt;font style=&quot;font-size: 9px;&quot;&gt;Agent raportowy sprawdza czy podobny raport był już wykonywany w przeszłości&lt;/font&gt;" style="rounded=1;whiteSpace=wrap;html=1;fillColor=#66CC00;" vertex="1" parent="1">
          <mxGeometry x="590" y="199.5" width="130" height="59" as="geometry" />
        </mxCell>
        <mxCell id="lYLtupi1fAIk3EvGBnep-4" value="PROMPT" style="ellipse;whiteSpace=wrap;html=1;strokeColor=#66B2FF;" vertex="1" parent="1">
          <mxGeometry x="320" y="214" width="81" height="30" as="geometry" />
        </mxCell>
        <mxCell id="lYLtupi1fAIk3EvGBnep-5" value="" style="endArrow=classic;html=1;rounded=0;entryX=0;entryY=0.5;entryDx=0;entryDy=0;" edge="1" parent="1" source="lYLtupi1fAIk3EvGBnep-1" target="lYLtupi1fAIk3EvGBnep-4">
          <mxGeometry width="50" height="50" relative="1" as="geometry">
            <mxPoint x="220" y="229" as="sourcePoint" />
            <mxPoint x="440" y="560" as="targetPoint" />
          </mxGeometry>
        </mxCell>
        <mxCell id="lYLtupi1fAIk3EvGBnep-6" value="" style="endArrow=classic;html=1;rounded=0;exitX=1;exitY=0.5;exitDx=0;exitDy=0;entryX=0;entryY=0.5;entryDx=0;entryDy=0;" edge="1" parent="1" source="lYLtupi1fAIk3EvGBnep-4" target="lYLtupi1fAIk3EvGBnep-12">
          <mxGeometry width="50" height="50" relative="1" as="geometry">
            <mxPoint x="580" y="440" as="sourcePoint" />
            <mxPoint x="630" y="390" as="targetPoint" />
          </mxGeometry>
        </mxCell>
        <mxCell id="lYLtupi1fAIk3EvGBnep-7" value="&lt;font style=&quot;font-size: 9px;&quot;&gt;Użytkownik otrzymuje listę raportów które mogą spełniać zadane kryteria&lt;/font&gt;" style="rounded=1;whiteSpace=wrap;html=1;fillColor=#66B2FF;" vertex="1" parent="1">
          <mxGeometry x="770" y="200" width="110" height="56" as="geometry" />
        </mxCell>
        <mxCell id="lYLtupi1fAIk3EvGBnep-8" value="" style="endArrow=classic;html=1;rounded=0;exitX=1;exitY=0.5;exitDx=0;exitDy=0;entryX=0;entryY=0.5;entryDx=0;entryDy=0;" edge="1" parent="1" source="lYLtupi1fAIk3EvGBnep-3" target="lYLtupi1fAIk3EvGBnep-7">
          <mxGeometry width="50" height="50" relative="1" as="geometry">
            <mxPoint x="580" y="520" as="sourcePoint" />
            <mxPoint x="630" y="470" as="targetPoint" />
          </mxGeometry>
        </mxCell>
        <mxCell id="lYLtupi1fAIk3EvGBnep-9" value="Tak" style="edgeLabel;html=1;align=center;verticalAlign=middle;resizable=0;points=[];" vertex="1" connectable="0" parent="lYLtupi1fAIk3EvGBnep-8">
          <mxGeometry x="-0.1766" relative="1" as="geometry">
            <mxPoint as="offset" />
          </mxGeometry>
        </mxCell>
        <mxCell id="lYLtupi1fAIk3EvGBnep-10" value="" style="sketch=0;outlineConnect=0;fontColor=#232F3E;gradientColor=none;fillColor=#66CC00;strokeColor=none;dashed=0;verticalLabelPosition=bottom;verticalAlign=top;align=center;html=1;fontSize=12;fontStyle=0;aspect=fixed;pointerEvents=1;shape=mxgraph.aws4.user;" vertex="1" parent="1">
          <mxGeometry x="910" y="190" width="78" height="78" as="geometry" />
        </mxCell>
        <mxCell id="lYLtupi1fAIk3EvGBnep-11" value="" style="endArrow=classic;html=1;rounded=0;exitX=1;exitY=0.5;exitDx=0;exitDy=0;" edge="1" parent="1" source="lYLtupi1fAIk3EvGBnep-7" target="lYLtupi1fAIk3EvGBnep-10">
          <mxGeometry width="50" height="50" relative="1" as="geometry">
            <mxPoint x="580" y="520" as="sourcePoint" />
            <mxPoint x="630" y="470" as="targetPoint" />
          </mxGeometry>
        </mxCell>
        <mxCell id="lYLtupi1fAIk3EvGBnep-12" value="&lt;font style=&quot;font-size: 9px;&quot;&gt;Weryfikacja czy zadanie zlecone w prompcie jest możliwe do wykonania przez agenta&lt;/font&gt;" style="rounded=1;whiteSpace=wrap;html=1;fillColor=#66CC00;" vertex="1" parent="1">
          <mxGeometry x="430" y="200" width="110" height="60" as="geometry" />
        </mxCell>
        <mxCell id="lYLtupi1fAIk3EvGBnep-13" value="" style="endArrow=classic;html=1;rounded=0;entryX=0.5;entryY=0;entryDx=0;entryDy=0;exitX=0.5;exitY=1;exitDx=0;exitDy=0;" edge="1" parent="1" source="lYLtupi1fAIk3EvGBnep-12" target="lYLtupi1fAIk3EvGBnep-14">
          <mxGeometry width="50" height="50" relative="1" as="geometry">
            <mxPoint x="509.92" y="253.5" as="sourcePoint" />
            <mxPoint x="509.92" y="295.49999999999994" as="targetPoint" />
          </mxGeometry>
        </mxCell>
        <mxCell id="lYLtupi1fAIk3EvGBnep-16" value="Nie" style="edgeLabel;html=1;align=center;verticalAlign=middle;resizable=0;points=[];" vertex="1" connectable="0" parent="lYLtupi1fAIk3EvGBnep-13">
          <mxGeometry x="0.0317" y="-1" relative="1" as="geometry">
            <mxPoint as="offset" />
          </mxGeometry>
        </mxCell>
        <mxCell id="lYLtupi1fAIk3EvGBnep-14" value="&lt;font style=&quot;font-size: 9px;&quot;&gt;Zwrócenie informacji do użytkownika o niemożliwości wykonania tak sformułowanego zadania&lt;/font&gt;" style="rounded=1;whiteSpace=wrap;html=1;fillColor=#66B2FF;" vertex="1" parent="1">
          <mxGeometry x="425" y="410" width="120" height="60" as="geometry" />
        </mxCell>
        <mxCell id="lYLtupi1fAIk3EvGBnep-15" value="" style="endArrow=classic;html=1;rounded=0;exitX=1;exitY=0.5;exitDx=0;exitDy=0;entryX=0;entryY=0.5;entryDx=0;entryDy=0;" edge="1" parent="1" source="lYLtupi1fAIk3EvGBnep-12" target="lYLtupi1fAIk3EvGBnep-3">
          <mxGeometry width="50" height="50" relative="1" as="geometry">
            <mxPoint x="580" y="520" as="sourcePoint" />
            <mxPoint x="630" y="470" as="targetPoint" />
          </mxGeometry>
        </mxCell>
        <mxCell id="lYLtupi1fAIk3EvGBnep-17" value="Tak" style="edgeLabel;html=1;align=center;verticalAlign=middle;resizable=0;points=[];" vertex="1" connectable="0" parent="lYLtupi1fAIk3EvGBnep-15">
          <mxGeometry x="-0.0222" y="-1" relative="1" as="geometry">
            <mxPoint as="offset" />
          </mxGeometry>
        </mxCell>
        <mxCell id="lYLtupi1fAIk3EvGBnep-20" value="" style="endArrow=classic;html=1;rounded=0;exitX=0.5;exitY=1;exitDx=0;exitDy=0;entryX=0.5;entryY=0.5;entryDx=0;entryDy=-15;entryPerimeter=0;" edge="1" parent="1" source="lYLtupi1fAIk3EvGBnep-14">
          <mxGeometry width="50" height="50" relative="1" as="geometry">
            <mxPoint x="580" y="190" as="sourcePoint" />
            <mxPoint x="485" y="510" as="targetPoint" />
          </mxGeometry>
        </mxCell>
        <mxCell id="lYLtupi1fAIk3EvGBnep-22" value="&lt;font style=&quot;font-size: 9px;&quot;&gt;Użytkownik decyduje czy otrzymane raporty spełniają jego oczekiwania&lt;/font&gt;" style="text;html=1;align=center;verticalAlign=middle;whiteSpace=wrap;rounded=0;" vertex="1" parent="1">
          <mxGeometry x="900" y="280" width="100" height="30" as="geometry" />
        </mxCell>
        <mxCell id="lYLtupi1fAIk3EvGBnep-25" value="&lt;font style=&quot;font-size: 9px;&quot;&gt;zakończenie procesu&lt;/font&gt;" style="html=1;dashed=0;whiteSpace=wrap;shape=mxgraph.dfd.start;fillColor=#FFB366;" vertex="1" parent="1">
          <mxGeometry x="910" y="750" width="80" height="30" as="geometry" />
        </mxCell>
        <mxCell id="lYLtupi1fAIk3EvGBnep-27" value="" style="endArrow=classic;html=1;rounded=0;entryX=0.5;entryY=0.5;entryDx=0;entryDy=-15;entryPerimeter=0;" edge="1" parent="1" target="lYLtupi1fAIk3EvGBnep-25">
          <mxGeometry width="50" height="50" relative="1" as="geometry">
            <mxPoint x="950" y="330" as="sourcePoint" />
            <mxPoint x="810" y="340" as="targetPoint" />
          </mxGeometry>
        </mxCell>
        <mxCell id="lYLtupi1fAIk3EvGBnep-28" value="Tak" style="edgeLabel;html=1;align=center;verticalAlign=middle;resizable=0;points=[];" vertex="1" connectable="0" parent="lYLtupi1fAIk3EvGBnep-27">
          <mxGeometry x="-0.0367" relative="1" as="geometry">
            <mxPoint as="offset" />
          </mxGeometry>
        </mxCell>
        <mxCell id="lYLtupi1fAIk3EvGBnep-29" value="&lt;font style=&quot;font-size: 9px;&quot;&gt;Agent do analizy danych sprawdza czy dysponuje danymi potrzebnymi do przygotowania raportu&lt;/font&gt;" style="rounded=1;whiteSpace=wrap;html=1;fillColor=#66CC00;" vertex="1" parent="1">
          <mxGeometry x="1050" y="200" width="120" height="60" as="geometry" />
        </mxCell>
        <mxCell id="lYLtupi1fAIk3EvGBnep-30" value="" style="endArrow=classic;html=1;rounded=0;exitX=1.078;exitY=0.513;exitDx=0;exitDy=0;exitPerimeter=0;entryX=0;entryY=0.5;entryDx=0;entryDy=0;" edge="1" parent="1" source="lYLtupi1fAIk3EvGBnep-10" target="lYLtupi1fAIk3EvGBnep-29">
          <mxGeometry width="50" height="50" relative="1" as="geometry">
            <mxPoint x="980" y="390" as="sourcePoint" />
            <mxPoint x="1030" y="340" as="targetPoint" />
          </mxGeometry>
        </mxCell>
        <mxCell id="lYLtupi1fAIk3EvGBnep-31" value="Nie" style="edgeLabel;html=1;align=center;verticalAlign=middle;resizable=0;points=[];" vertex="1" connectable="0" parent="lYLtupi1fAIk3EvGBnep-30">
          <mxGeometry x="-0.114" y="-1" relative="1" as="geometry">
            <mxPoint as="offset" />
          </mxGeometry>
        </mxCell>
        <mxCell id="lYLtupi1fAIk3EvGBnep-34" value="&lt;div align=&quot;center&quot;&gt;&lt;font style=&quot;font-size: 9px;&quot;&gt;Agent do zbierania danych podejmuje próbę pobrania potrzebnych danych&lt;/font&gt;&lt;/div&gt;" style="rounded=1;whiteSpace=wrap;html=1;align=center;fillColor=#66B2FF;" vertex="1" parent="1">
          <mxGeometry x="1050" y="310" width="120" height="60" as="geometry" />
        </mxCell>
        <mxCell id="lYLtupi1fAIk3EvGBnep-35" value="&lt;font style=&quot;font-size: 9px;&quot;&gt;Agent do analizy danych sprawdza czy udało się pobrać wszystkie potrzebne dane&lt;/font&gt;" style="rounded=1;whiteSpace=wrap;html=1;fillColor=#66CC00;" vertex="1" parent="1">
          <mxGeometry x="1210" y="310" width="120" height="60" as="geometry" />
        </mxCell>
        <mxCell id="lYLtupi1fAIk3EvGBnep-36" value="&lt;font style=&quot;font-size: 9px;&quot;&gt;Zwrócenie informacji do użytkownika o braku dostatecznych danych do przygotowania raportu&lt;/font&gt;" style="rounded=1;whiteSpace=wrap;html=1;fillColor=#66B2FF;" vertex="1" parent="1">
          <mxGeometry x="1210" y="410" width="120" height="60" as="geometry" />
        </mxCell>
        <mxCell id="lYLtupi1fAIk3EvGBnep-38" value="" style="endArrow=classic;html=1;rounded=0;exitX=0.5;exitY=1;exitDx=0;exitDy=0;entryX=0.5;entryY=0;entryDx=0;entryDy=0;" edge="1" parent="1" source="lYLtupi1fAIk3EvGBnep-29" target="lYLtupi1fAIk3EvGBnep-34">
          <mxGeometry width="50" height="50" relative="1" as="geometry">
            <mxPoint x="940" y="390" as="sourcePoint" />
            <mxPoint x="990" y="340" as="targetPoint" />
          </mxGeometry>
        </mxCell>
        <mxCell id="lYLtupi1fAIk3EvGBnep-39" value="Nie" style="edgeLabel;html=1;align=center;verticalAlign=middle;resizable=0;points=[];" vertex="1" connectable="0" parent="lYLtupi1fAIk3EvGBnep-38">
          <mxGeometry x="-0.2714" relative="1" as="geometry">
            <mxPoint as="offset" />
          </mxGeometry>
        </mxCell>
        <mxCell id="lYLtupi1fAIk3EvGBnep-40" value="" style="endArrow=classic;html=1;rounded=0;exitX=1;exitY=0.5;exitDx=0;exitDy=0;entryX=0;entryY=0.5;entryDx=0;entryDy=0;" edge="1" parent="1" source="lYLtupi1fAIk3EvGBnep-34" target="lYLtupi1fAIk3EvGBnep-35">
          <mxGeometry width="50" height="50" relative="1" as="geometry">
            <mxPoint x="940" y="390" as="sourcePoint" />
            <mxPoint x="990" y="340" as="targetPoint" />
          </mxGeometry>
        </mxCell>
        <mxCell id="lYLtupi1fAIk3EvGBnep-41" value="" style="endArrow=classic;html=1;rounded=0;exitX=0.5;exitY=1;exitDx=0;exitDy=0;entryX=0.5;entryY=0;entryDx=0;entryDy=0;" edge="1" parent="1" source="lYLtupi1fAIk3EvGBnep-35" target="lYLtupi1fAIk3EvGBnep-36">
          <mxGeometry width="50" height="50" relative="1" as="geometry">
            <mxPoint x="1260" y="390" as="sourcePoint" />
            <mxPoint x="1310" y="340" as="targetPoint" />
          </mxGeometry>
        </mxCell>
        <mxCell id="lYLtupi1fAIk3EvGBnep-42" value="Nie" style="edgeLabel;html=1;align=center;verticalAlign=middle;resizable=0;points=[];" vertex="1" connectable="0" parent="lYLtupi1fAIk3EvGBnep-41">
          <mxGeometry x="-0.0057" relative="1" as="geometry">
            <mxPoint as="offset" />
          </mxGeometry>
        </mxCell>
        <mxCell id="lYLtupi1fAIk3EvGBnep-43" value="" style="endArrow=classic;html=1;rounded=0;exitX=0.5;exitY=1;exitDx=0;exitDy=0;entryX=0.5;entryY=0.5;entryDx=0;entryDy=-15;entryPerimeter=0;" edge="1" parent="1" source="lYLtupi1fAIk3EvGBnep-36">
          <mxGeometry width="50" height="50" relative="1" as="geometry">
            <mxPoint x="1260" y="390" as="sourcePoint" />
            <mxPoint x="1270" y="510" as="targetPoint" />
          </mxGeometry>
        </mxCell>
        <mxCell id="lYLtupi1fAIk3EvGBnep-44" value="&lt;font style=&quot;font-size: 9px;&quot;&gt;Agent do raportowania przygotowuje raport dla użytkownika (użytkownik ma do niego dostęp z poziomu interfejsu)&lt;br&gt;&lt;/font&gt;" style="rounded=1;whiteSpace=wrap;html=1;fillColor=#66B2FF;" vertex="1" parent="1">
          <mxGeometry x="1600" y="195" width="150" height="70" as="geometry" />
        </mxCell>
        <mxCell id="lYLtupi1fAIk3EvGBnep-45" value="" style="endArrow=classic;html=1;rounded=0;exitX=1;exitY=0.5;exitDx=0;exitDy=0;entryX=0;entryY=0.5;entryDx=0;entryDy=0;" edge="1" parent="1" source="lYLtupi1fAIk3EvGBnep-29" target="lYLtupi1fAIk3EvGBnep-44">
          <mxGeometry width="50" height="50" relative="1" as="geometry">
            <mxPoint x="1260" y="390" as="sourcePoint" />
            <mxPoint x="1310" y="340" as="targetPoint" />
          </mxGeometry>
        </mxCell>
        <mxCell id="lYLtupi1fAIk3EvGBnep-46" value="Tak" style="edgeLabel;html=1;align=center;verticalAlign=middle;resizable=0;points=[];" vertex="1" connectable="0" parent="lYLtupi1fAIk3EvGBnep-45">
          <mxGeometry x="0.0055" y="1" relative="1" as="geometry">
            <mxPoint as="offset" />
          </mxGeometry>
        </mxCell>
        <mxCell id="lYLtupi1fAIk3EvGBnep-49" value="&lt;font style=&quot;font-size: 9px;&quot;&gt;zakończenie procesu&lt;/font&gt;" style="html=1;dashed=0;whiteSpace=wrap;shape=mxgraph.dfd.start;fillColor=#FFB366;" vertex="1" parent="1">
          <mxGeometry x="2020" y="215" width="80" height="30" as="geometry" />
        </mxCell>
        <mxCell id="lYLtupi1fAIk3EvGBnep-50" value="" style="endArrow=classic;html=1;rounded=0;exitX=1;exitY=0.5;exitDx=0;exitDy=0;entryX=0;entryY=0.5;entryDx=0;entryDy=0;" edge="1" parent="1" source="lYLtupi1fAIk3EvGBnep-44" target="lYLtupi1fAIk3EvGBnep-64">
          <mxGeometry width="50" height="50" relative="1" as="geometry">
            <mxPoint x="950" y="310" as="sourcePoint" />
            <mxPoint x="1000" y="260" as="targetPoint" />
          </mxGeometry>
        </mxCell>
        <mxCell id="lYLtupi1fAIk3EvGBnep-52" value="" style="ellipse;whiteSpace=wrap;html=1;aspect=fixed;fillColor=#66B2FF;" vertex="1" parent="1">
          <mxGeometry x="180" y="715" width="20" height="20" as="geometry" />
        </mxCell>
        <mxCell id="lYLtupi1fAIk3EvGBnep-53" value="" style="ellipse;whiteSpace=wrap;html=1;aspect=fixed;fillColor=#66CC00;" vertex="1" parent="1">
          <mxGeometry x="180" y="745" width="20" height="20" as="geometry" />
        </mxCell>
        <mxCell id="lYLtupi1fAIk3EvGBnep-54" value="" style="ellipse;whiteSpace=wrap;html=1;aspect=fixed;fillColor=#FF9933;" vertex="1" parent="1">
          <mxGeometry x="180" y="775" width="20" height="20" as="geometry" />
        </mxCell>
        <mxCell id="lYLtupi1fAIk3EvGBnep-55" value="operacje potrzebne do realizacji procesu" style="text;html=1;align=center;verticalAlign=middle;whiteSpace=wrap;rounded=0;" vertex="1" parent="1">
          <mxGeometry x="186" y="710" width="270" height="30" as="geometry" />
        </mxCell>
        <mxCell id="lYLtupi1fAIk3EvGBnep-56" value="punkty decyzyjne" style="text;html=1;align=center;verticalAlign=middle;whiteSpace=wrap;rounded=0;" vertex="1" parent="1">
          <mxGeometry x="186" y="740" width="140" height="30" as="geometry" />
        </mxCell>
        <mxCell id="lYLtupi1fAIk3EvGBnep-57" value="zakończenie procesu" style="text;html=1;align=center;verticalAlign=middle;whiteSpace=wrap;rounded=0;" vertex="1" parent="1">
          <mxGeometry x="186" y="770" width="160" height="30" as="geometry" />
        </mxCell>
        <mxCell id="lYLtupi1fAIk3EvGBnep-58" value="&lt;font style=&quot;font-size: 9px;&quot;&gt;Agent dokonuje procesu analizy danych. Zwraca też uwagę czy zaszły istotne zmiany na rynku w ofertach konkurencji. Przygotowuje analizę i przekazuje ją do agenta raportujacego&lt;br&gt;&lt;/font&gt;" style="rounded=1;whiteSpace=wrap;html=1;fillColor=#66B2FF;" vertex="1" parent="1">
          <mxGeometry x="1390" y="295" width="180" height="90" as="geometry" />
        </mxCell>
        <mxCell id="lYLtupi1fAIk3EvGBnep-59" value="" style="endArrow=classic;html=1;rounded=0;exitX=1;exitY=0.5;exitDx=0;exitDy=0;entryX=0;entryY=0.5;entryDx=0;entryDy=0;" edge="1" parent="1" source="lYLtupi1fAIk3EvGBnep-35" target="lYLtupi1fAIk3EvGBnep-58">
          <mxGeometry width="50" height="50" relative="1" as="geometry">
            <mxPoint x="950" y="490" as="sourcePoint" />
            <mxPoint x="1000" y="440" as="targetPoint" />
          </mxGeometry>
        </mxCell>
        <mxCell id="lYLtupi1fAIk3EvGBnep-60" value="Tak" style="edgeLabel;html=1;align=center;verticalAlign=middle;resizable=0;points=[];" vertex="1" connectable="0" parent="lYLtupi1fAIk3EvGBnep-59">
          <mxGeometry x="0.038" y="-2" relative="1" as="geometry">
            <mxPoint as="offset" />
          </mxGeometry>
        </mxCell>
        <mxCell id="lYLtupi1fAIk3EvGBnep-63" value="" style="endArrow=classic;html=1;rounded=0;exitX=1;exitY=0.5;exitDx=0;exitDy=0;entryX=0.5;entryY=1;entryDx=0;entryDy=0;" edge="1" parent="1" source="lYLtupi1fAIk3EvGBnep-58" target="lYLtupi1fAIk3EvGBnep-44">
          <mxGeometry width="50" height="50" relative="1" as="geometry">
            <mxPoint x="1500" y="490" as="sourcePoint" />
            <mxPoint x="1550" y="440" as="targetPoint" />
            <Array as="points">
              <mxPoint x="1675" y="340" />
            </Array>
          </mxGeometry>
        </mxCell>
        <mxCell id="lYLtupi1fAIk3EvGBnep-64" value="&lt;font style=&quot;font-size: 9px;&quot;&gt;Agent sprawdza czy pojawiła się informacja o istotnych zmianach na rynku w ofertach konkurencji&lt;/font&gt;" style="rounded=1;whiteSpace=wrap;html=1;fillColor=#66CC00;" vertex="1" parent="1">
          <mxGeometry x="1820" y="200" width="130" height="60" as="geometry" />
        </mxCell>
        <mxCell id="lYLtupi1fAIk3EvGBnep-65" value="" style="endArrow=classic;html=1;rounded=0;exitX=1;exitY=0.5;exitDx=0;exitDy=0;entryX=0;entryY=0.5;entryDx=0;entryDy=0;entryPerimeter=0;" edge="1" parent="1" source="lYLtupi1fAIk3EvGBnep-64" target="lYLtupi1fAIk3EvGBnep-49">
          <mxGeometry width="50" height="50" relative="1" as="geometry">
            <mxPoint x="1500" y="490" as="sourcePoint" />
            <mxPoint x="1550" y="440" as="targetPoint" />
          </mxGeometry>
        </mxCell>
        <mxCell id="lYLtupi1fAIk3EvGBnep-66" value="Nie" style="edgeLabel;html=1;align=center;verticalAlign=middle;resizable=0;points=[];" vertex="1" connectable="0" parent="lYLtupi1fAIk3EvGBnep-65">
          <mxGeometry x="-0.0381" y="-4" relative="1" as="geometry">
            <mxPoint as="offset" />
          </mxGeometry>
        </mxCell>
        <mxCell id="lYLtupi1fAIk3EvGBnep-67" value="&lt;font style=&quot;font-size: 9px;&quot;&gt;Wysyłka raportu emailem do wskazanych osób z zaznaczeniem że raport zawiera informacje o istotnych zmianach &lt;/font&gt;" style="rounded=1;whiteSpace=wrap;html=1;fillColor=#66B2FF;" vertex="1" parent="1">
          <mxGeometry x="1810" y="318" width="145" height="72" as="geometry" />
        </mxCell>
        <mxCell id="lYLtupi1fAIk3EvGBnep-68" value="" style="endArrow=classic;html=1;rounded=0;exitX=0.5;exitY=1;exitDx=0;exitDy=0;" edge="1" parent="1" source="lYLtupi1fAIk3EvGBnep-64" target="lYLtupi1fAIk3EvGBnep-67">
          <mxGeometry width="50" height="50" relative="1" as="geometry">
            <mxPoint x="1500" y="490" as="sourcePoint" />
            <mxPoint x="1550" y="440" as="targetPoint" />
          </mxGeometry>
        </mxCell>
        <mxCell id="lYLtupi1fAIk3EvGBnep-69" value="Tak" style="edgeLabel;html=1;align=center;verticalAlign=middle;resizable=0;points=[];" vertex="1" connectable="0" parent="lYLtupi1fAIk3EvGBnep-68">
          <mxGeometry x="-0.1092" y="-2" relative="1" as="geometry">
            <mxPoint as="offset" />
          </mxGeometry>
        </mxCell>
        <mxCell id="lYLtupi1fAIk3EvGBnep-70" value="" style="endArrow=classic;html=1;rounded=0;exitX=1;exitY=0.5;exitDx=0;exitDy=0;entryX=0.5;entryY=0.5;entryDx=0;entryDy=15;entryPerimeter=0;" edge="1" parent="1" source="lYLtupi1fAIk3EvGBnep-67" target="lYLtupi1fAIk3EvGBnep-49">
          <mxGeometry width="50" height="50" relative="1" as="geometry">
            <mxPoint x="1500" y="490" as="sourcePoint" />
            <mxPoint x="1550" y="440" as="targetPoint" />
            <Array as="points">
              <mxPoint x="2060" y="354" />
            </Array>
          </mxGeometry>
        </mxCell>
        <mxCell id="lYLtupi1fAIk3EvGBnep-72" value="&lt;font style=&quot;font-size: 9px;&quot;&gt;zakończenie procesu&lt;/font&gt;" style="html=1;dashed=0;whiteSpace=wrap;shape=mxgraph.dfd.start;fillColor=#FFB366;" vertex="1" parent="1">
          <mxGeometry x="684" y="750" width="80" height="30" as="geometry" />
        </mxCell>
        <mxCell id="lYLtupi1fAIk3EvGBnep-73" value="" style="endArrow=classic;html=1;rounded=0;entryX=0.5;entryY=0.5;entryDx=0;entryDy=-15;entryPerimeter=0;" edge="1" parent="1" target="lYLtupi1fAIk3EvGBnep-72">
          <mxGeometry width="50" height="50" relative="1" as="geometry">
            <mxPoint x="494" y="590" as="sourcePoint" />
            <mxPoint x="-56" y="350" as="targetPoint" />
          </mxGeometry>
        </mxCell>
        <mxCell id="lYLtupi1fAIk3EvGBnep-74" value="Nie" style="edgeLabel;html=1;align=center;verticalAlign=middle;resizable=0;points=[];" vertex="1" connectable="0" parent="lYLtupi1fAIk3EvGBnep-73">
          <mxGeometry x="-0.1433" y="-1" relative="1" as="geometry">
            <mxPoint as="offset" />
          </mxGeometry>
        </mxCell>
        <mxCell id="lYLtupi1fAIk3EvGBnep-75" value="&lt;font style=&quot;font-size: 9px;&quot;&gt;Sprawdzenie czy użytkownik życzył sobie aby informacje o niepowodzeniu wykonania raportu były wysyłane drogą mailową&lt;/font&gt;" style="rounded=1;whiteSpace=wrap;html=1;fillColor=#66CC00;" vertex="1" parent="1">
          <mxGeometry x="414" y="510" width="150" height="77.5" as="geometry" />
        </mxCell>
        <mxCell id="lYLtupi1fAIk3EvGBnep-76" value="&lt;font style=&quot;font-size: 9px;&quot;&gt;Wysyłka maila do wskazanych osób z informacją o niepowodzeniu przy tworzeniu raportu&lt;/font&gt;" style="rounded=1;whiteSpace=wrap;html=1;fillColor=#66B2FF;" vertex="1" parent="1">
          <mxGeometry x="654" y="510" width="140" height="77.5" as="geometry" />
        </mxCell>
        <mxCell id="lYLtupi1fAIk3EvGBnep-77" value="" style="endArrow=classic;html=1;rounded=0;exitX=0.5;exitY=1;exitDx=0;exitDy=0;" edge="1" parent="1" source="lYLtupi1fAIk3EvGBnep-76" target="lYLtupi1fAIk3EvGBnep-72">
          <mxGeometry width="50" height="50" relative="1" as="geometry">
            <mxPoint x="304" y="400" as="sourcePoint" />
            <mxPoint x="354" y="350" as="targetPoint" />
          </mxGeometry>
        </mxCell>
        <mxCell id="lYLtupi1fAIk3EvGBnep-79" value="" style="endArrow=classic;html=1;rounded=0;exitX=1;exitY=0.5;exitDx=0;exitDy=0;entryX=0;entryY=0.5;entryDx=0;entryDy=0;" edge="1" parent="1" source="lYLtupi1fAIk3EvGBnep-75" target="lYLtupi1fAIk3EvGBnep-76">
          <mxGeometry width="50" height="50" relative="1" as="geometry">
            <mxPoint x="590" y="550" as="sourcePoint" />
            <mxPoint x="640" y="500" as="targetPoint" />
          </mxGeometry>
        </mxCell>
        <mxCell id="lYLtupi1fAIk3EvGBnep-80" value="Tak" style="edgeLabel;html=1;align=center;verticalAlign=middle;resizable=0;points=[];" vertex="1" connectable="0" parent="lYLtupi1fAIk3EvGBnep-79">
          <mxGeometry x="0.0667" y="1" relative="1" as="geometry">
            <mxPoint as="offset" />
          </mxGeometry>
        </mxCell>
        <mxCell id="lYLtupi1fAIk3EvGBnep-81" value="&lt;font style=&quot;font-size: 9px;&quot;&gt;zakończenie procesu&lt;/font&gt;" style="html=1;dashed=0;whiteSpace=wrap;shape=mxgraph.dfd.start;fillColor=#FFB366;" vertex="1" parent="1">
          <mxGeometry x="1470" y="750" width="80" height="30" as="geometry" />
        </mxCell>
        <mxCell id="lYLtupi1fAIk3EvGBnep-82" value="" style="endArrow=classic;html=1;rounded=0;entryX=0.5;entryY=0.5;entryDx=0;entryDy=-15;entryPerimeter=0;" edge="1" parent="1" target="lYLtupi1fAIk3EvGBnep-81">
          <mxGeometry width="50" height="50" relative="1" as="geometry">
            <mxPoint x="1280" y="590" as="sourcePoint" />
            <mxPoint x="730" y="350" as="targetPoint" />
          </mxGeometry>
        </mxCell>
        <mxCell id="lYLtupi1fAIk3EvGBnep-83" value="Nie" style="edgeLabel;html=1;align=center;verticalAlign=middle;resizable=0;points=[];" vertex="1" connectable="0" parent="lYLtupi1fAIk3EvGBnep-82">
          <mxGeometry x="-0.1433" y="-1" relative="1" as="geometry">
            <mxPoint as="offset" />
          </mxGeometry>
        </mxCell>
        <mxCell id="lYLtupi1fAIk3EvGBnep-84" value="&lt;font style=&quot;font-size: 9px;&quot;&gt;Sprawdzenie czy użytkownik życzył sobie aby informacje o niepowodzeniu wykonania raportu były wysyłane drogą mailową&lt;/font&gt;" style="rounded=1;whiteSpace=wrap;html=1;fillColor=#66CC00;" vertex="1" parent="1">
          <mxGeometry x="1200" y="510" width="150" height="77.5" as="geometry" />
        </mxCell>
        <mxCell id="lYLtupi1fAIk3EvGBnep-85" value="&lt;font style=&quot;font-size: 9px;&quot;&gt;Wysyłka maila do wskazanych osób z informacją o niepowodzeniu przy tworzeniu raportu&lt;/font&gt;" style="rounded=1;whiteSpace=wrap;html=1;fillColor=#66B2FF;" vertex="1" parent="1">
          <mxGeometry x="1440" y="510" width="140" height="77.5" as="geometry" />
        </mxCell>
        <mxCell id="lYLtupi1fAIk3EvGBnep-86" value="" style="endArrow=classic;html=1;rounded=0;exitX=0.5;exitY=1;exitDx=0;exitDy=0;" edge="1" parent="1" source="lYLtupi1fAIk3EvGBnep-85" target="lYLtupi1fAIk3EvGBnep-81">
          <mxGeometry width="50" height="50" relative="1" as="geometry">
            <mxPoint x="1090" y="400" as="sourcePoint" />
            <mxPoint x="1140" y="350" as="targetPoint" />
          </mxGeometry>
        </mxCell>
        <mxCell id="lYLtupi1fAIk3EvGBnep-87" value="" style="endArrow=classic;html=1;rounded=0;exitX=1;exitY=0.5;exitDx=0;exitDy=0;entryX=0;entryY=0.5;entryDx=0;entryDy=0;" edge="1" parent="1" source="lYLtupi1fAIk3EvGBnep-84" target="lYLtupi1fAIk3EvGBnep-85">
          <mxGeometry width="50" height="50" relative="1" as="geometry">
            <mxPoint x="1376" y="550" as="sourcePoint" />
            <mxPoint x="1426" y="500" as="targetPoint" />
          </mxGeometry>
        </mxCell>
        <mxCell id="lYLtupi1fAIk3EvGBnep-88" value="Tak" style="edgeLabel;html=1;align=center;verticalAlign=middle;resizable=0;points=[];" vertex="1" connectable="0" parent="lYLtupi1fAIk3EvGBnep-87">
          <mxGeometry x="0.0667" y="1" relative="1" as="geometry">
            <mxPoint as="offset" />
          </mxGeometry>
        </mxCell>
      </root>
    </mxGraphModel>
  </diagram>
</mxfile>
